<svg xmlns="http://www.w3.org/2000/svg" width="1408" height="768" viewBox="0 0 1408 768">
  <defs>
    <radialGradient id="key" cx="32%" cy="26%" r="95%">
      <stop offset="0%" stop-color="#5b4632"/>
      <stop offset="48%" stop-color="#1c1508"/>
      <stop offset="100%" stop-color="#05040a"/>
    </radialGradient>
    <linearGradient id="beam" x1="0.05" y1="0" x2="0.75" y2="1">
      <stop offset="0%" stop-color="#ffe6bd" stop-opacity="0.106"/>
      <stop offset="55%" stop-color="#ffe6bd" stop-opacity="0"/>
    </linearGradient>
    <radialGradient id="orb" cx="50%" cy="50%" r="50%">
      <stop offset="0%"  stop-color="#ff9d57" stop-opacity="0.341"/>
      <stop offset="45%" stop-color="#ff9d57" stop-opacity="0.112"/>
      <stop offset="100%" stop-color="#ff9d57" stop-opacity="0"/>
    </radialGradient>
    <radialGradient id="vig" cx="50%" cy="40%" r="72%">
      <stop offset="52%" stop-color="#000" stop-opacity="0"/>
      <stop offset="100%" stop-color="#000" stop-opacity="0.85"/>
    </radialGradient>
    <filter id="grain"><feTurbulence type="fractalNoise" baseFrequency="0.9" numOctaves="2" stitchTiles="stitch"/>
      <feColorMatrix type="saturate" values="0"/>
      <feComponentTransfer><feFuncA type="linear" slope="0.05"/></feComponentTransfer></filter>
  </defs>

  <rect width="1408" height="768" fill="url(#key)"/>
  <rect width="1408" height="768" fill="url(#beam)"/>
  <!-- rising glow: warm ember → violet across the sequence -->
  <ellipse cx="732.1600000000001" cy="422.4" rx="696.4" ry="544" fill="url(#orb)"/>
  <g opacity="0.7"><circle cx="353" cy="487" r="0.8" fill="#f6d9a8" opacity="0.16"/><circle cx="61" cy="221" r="1.1" fill="#f6d9a8" opacity="0.34"/><circle cx="465" cy="543" r="1.8" fill="#f6d9a8" opacity="0.18"/><circle cx="1067" cy="79" r="1.5" fill="#f6d9a8" opacity="0.42"/><circle cx="527" cy="671" r="1.4" fill="#f6d9a8" opacity="0.31"/><circle cx="134" cy="281" r="0.9" fill="#f6d9a8" opacity="0.47"/><circle cx="501" cy="470" r="0.8" fill="#f6d9a8" opacity="0.50"/><circle cx="588" cy="748" r="0.6" fill="#f6d9a8" opacity="0.42"/><circle cx="19" cy="625" r="2.1" fill="#f6d9a8" opacity="0.42"/><circle cx="426" cy="450" r="0.9" fill="#f6d9a8" opacity="0.50"/><circle cx="462" cy="1" r="1.1" fill="#f6d9a8" opacity="0.29"/><circle cx="602" cy="101" r="2.3" fill="#f6d9a8" opacity="0.46"/><circle cx="444" cy="475" r="1.0" fill="#f6d9a8" opacity="0.49"/><circle cx="1080" cy="284" r="1.3" fill="#f6d9a8" opacity="0.44"/><circle cx="183" cy="284" r="1.2" fill="#f6d9a8" opacity="0.27"/><circle cx="143" cy="400" r="0.7" fill="#f6d9a8" opacity="0.22"/><circle cx="676" cy="484" r="0.8" fill="#f6d9a8" opacity="0.25"/><circle cx="1186" cy="732" r="2.2" fill="#f6d9a8" opacity="0.48"/><circle cx="501" cy="704" r="1.1" fill="#f6d9a8" opacity="0.45"/><circle cx="232" cy="717" r="0.9" fill="#f6d9a8" opacity="0.34"/><circle cx="101" cy="324" r="0.6" fill="#f6d9a8" opacity="0.39"/><circle cx="638" cy="343" r="1.2" fill="#f6d9a8" opacity="0.45"/><circle cx="870" cy="467" r="1.7" fill="#f6d9a8" opacity="0.33"/><circle cx="91" cy="52" r="1.1" fill="#f6d9a8" opacity="0.18"/><circle cx="465" cy="666" r="2.6" fill="#f6d9a8" opacity="0.33"/><circle cx="563" cy="694" r="2.3" fill="#f6d9a8" opacity="0.41"/><circle cx="1216" cy="183" r="2.6" fill="#f6d9a8" opacity="0.16"/><circle cx="404" cy="455" r="2.7" fill="#f6d9a8" opacity="0.45"/><circle cx="686" cy="152" r="2.7" fill="#f6d9a8" opacity="0.50"/><circle cx="956" cy="287" r="1.2" fill="#f6d9a8" opacity="0.47"/><circle cx="964" cy="380" r="0.8" fill="#f6d9a8" opacity="0.43"/><circle cx="936" cy="160" r="1.6" fill="#f6d9a8" opacity="0.27"/><circle cx="103" cy="53" r="1.1" fill="#f6d9a8" opacity="0.43"/><circle cx="1112" cy="747" r="1.5" fill="#f6d9a8" opacity="0.30"/><circle cx="887" cy="13" r="0.5" fill="#f6d9a8" opacity="0.29"/><circle cx="974" cy="545" r="0.5" fill="#f6d9a8" opacity="0.16"/><circle cx="330" cy="480" r="2.6" fill="#f6d9a8" opacity="0.37"/><circle cx="69" cy="723" r="2.5" fill="#f6d9a8" opacity="0.36"/><circle cx="734" cy="356" r="0.4" fill="#f6d9a8" opacity="0.26"/><circle cx="1179" cy="37" r="1.0" fill="#f6d9a8" opacity="0.50"/><circle cx="63" cy="424" r="1.5" fill="#f6d9a8" opacity="0.43"/><circle cx="1274" cy="544" r="0.7" fill="#f6d9a8" opacity="0.37"/><circle cx="1071" cy="438" r="0.4" fill="#f6d9a8" opacity="0.26"/><circle cx="1204" cy="305" r="0.8" fill="#f6d9a8" opacity="0.30"/><circle cx="1148" cy="115" r="2.7" fill="#f6d9a8" opacity="0.42"/><circle cx="347" cy="734" r="1.8" fill="#f6d9a8" opacity="0.20"/><circle cx="912" cy="165" r="1.3" fill="#f6d9a8" opacity="0.21"/><circle cx="138" cy="163" r="2.6" fill="#f6d9a8" opacity="0.24"/><circle cx="577" cy="300" r="2.0" fill="#f6d9a8" opacity="0.38"/><circle cx="1010" cy="519" r="1.0" fill="#f6d9a8" opacity="0.38"/><circle cx="971" cy="368" r="1.7" fill="#f6d9a8" opacity="0.17"/><circle cx="1168" cy="222" r="2.1" fill="#f6d9a8" opacity="0.36"/><circle cx="784" cy="755" r="2.7" fill="#f6d9a8" opacity="0.48"/><circle cx="42" cy="184" r="1.3" fill="#f6d9a8" opacity="0.27"/><circle cx="1286" cy="547" r="2.7" fill="#f6d9a8" opacity="0.25"/><circle cx="758" cy="643" r="1.5" fill="#f6d9a8" opacity="0.30"/><circle cx="227" cy="332" r="0.6" fill="#f6d9a8" opacity="0.44"/><circle cx="388" cy="350" r="1.8" fill="#f6d9a8" opacity="0.29"/><circle cx="253" cy="454" r="2.4" fill="#f6d9a8" opacity="0.42"/><circle cx="348" cy="408" r="2.2" fill="#f6d9a8" opacity="0.20"/><circle cx="869" cy="78" r="2.5" fill="#f6d9a8" opacity="0.17"/><circle cx="337" cy="485" r="1.3" fill="#f6d9a8" opacity="0.41"/><circle cx="695" cy="143" r="2.7" fill="#f6d9a8" opacity="0.34"/><circle cx="1167" cy="445" r="1.8" fill="#f6d9a8" opacity="0.16"/><circle cx="169" cy="217" r="2.3" fill="#f6d9a8" opacity="0.23"/><circle cx="997" cy="493" r="0.6" fill="#f6d9a8" opacity="0.31"/><circle cx="451" cy="16" r="1.8" fill="#f6d9a8" opacity="0.32"/><circle cx="446" cy="603" r="0.7" fill="#f6d9a8" opacity="0.46"/><circle cx="1380" cy="191" r="1.6" fill="#f6d9a8" opacity="0.33"/><circle cx="1113" cy="756" r="2.2" fill="#f6d9a8" opacity="0.32"/><circle cx="1259" cy="103" r="0.5" fill="#f6d9a8" opacity="0.38"/><circle cx="308" cy="467" r="2.0" fill="#f6d9a8" opacity="0.37"/><circle cx="1316" cy="246" r="2.5" fill="#f6d9a8" opacity="0.19"/><circle cx="311" cy="651" r="2.5" fill="#f6d9a8" opacity="0.17"/><circle cx="748" cy="112" r="2.5" fill="#f6d9a8" opacity="0.19"/><circle cx="1164" cy="175" r="1.1" fill="#f6d9a8" opacity="0.41"/><circle cx="647" cy="715" r="2.0" fill="#f6d9a8" opacity="0.48"/><circle cx="955" cy="130" r="0.7" fill="#f6d9a8" opacity="0.27"/><circle cx="1332" cy="244" r="1.1" fill="#f6d9a8" opacity="0.24"/><circle cx="752" cy="467" r="2.4" fill="#f6d9a8" opacity="0.49"/><circle cx="117" cy="526" r="1.3" fill="#f6d9a8" opacity="0.20"/><circle cx="135" cy="537" r="1.1" fill="#f6d9a8" opacity="0.50"/><circle cx="787" cy="471" r="1.0" fill="#f6d9a8" opacity="0.34"/><circle cx="201" cy="427" r="1.5" fill="#f6d9a8" opacity="0.43"/><circle cx="981" cy="324" r="0.5" fill="#f6d9a8" opacity="0.33"/><circle cx="1374" cy="52" r="0.6" fill="#f6d9a8" opacity="0.40"/><circle cx="1142" cy="586" r="0.9" fill="#f6d9a8" opacity="0.46"/><circle cx="254" cy="601" r="2.4" fill="#f6d9a8" opacity="0.15"/><circle cx="1225" cy="216" r="0.9" fill="#f6d9a8" opacity="0.27"/><circle cx="982" cy="645" r="2.5" fill="#f6d9a8" opacity="0.43"/></g>
  <g opacity="0.9"><circle cx="356" cy="207" r="2.7" fill="#f6d9a8" opacity="0.30"/><circle cx="998" cy="400" r="1.1" fill="#f6d9a8" opacity="0.58"/><circle cx="1255" cy="84" r="2.2" fill="#f6d9a8" opacity="0.55"/><circle cx="839" cy="588" r="0.5" fill="#f6d9a8" opacity="0.19"/><circle cx="629" cy="753" r="1.7" fill="#f6d9a8" opacity="0.46"/><circle cx="1313" cy="235" r="2.5" fill="#f6d9a8" opacity="0.35"/><circle cx="251" cy="542" r="1.2" fill="#f6d9a8" opacity="0.33"/><circle cx="122" cy="227" r="0.9" fill="#f6d9a8" opacity="0.54"/><circle cx="1065" cy="45" r="1.5" fill="#f6d9a8" opacity="0.28"/><circle cx="421" cy="261" r="1.6" fill="#f6d9a8" opacity="0.18"/><circle cx="641" cy="176" r="0.9" fill="#f6d9a8" opacity="0.31"/><circle cx="923" cy="96" r="1.8" fill="#f6d9a8" opacity="0.21"/><circle cx="564" cy="75" r="1.8" fill="#f6d9a8" opacity="0.60"/><circle cx="169" cy="646" r="2.6" fill="#f6d9a8" opacity="0.48"/><circle cx="1248" cy="247" r="1.6" fill="#f6d9a8" opacity="0.55"/><circle cx="888" cy="332" r="0.7" fill="#f6d9a8" opacity="0.30"/><circle cx="1059" cy="183" r="1.0" fill="#f6d9a8" opacity="0.55"/><circle cx="362" cy="498" r="1.5" fill="#f6d9a8" opacity="0.41"/><circle cx="1157" cy="441" r="0.7" fill="#f6d9a8" opacity="0.53"/><circle cx="593" cy="707" r="1.0" fill="#f6d9a8" opacity="0.33"/><circle cx="572" cy="749" r="2.7" fill="#f6d9a8" opacity="0.22"/><circle cx="255" cy="27" r="2.0" fill="#f6d9a8" opacity="0.19"/><circle cx="1218" cy="261" r="1.8" fill="#f6d9a8" opacity="0.53"/><circle cx="812" cy="489" r="0.8" fill="#f6d9a8" opacity="0.48"/><circle cx="335" cy="747" r="2.5" fill="#f6d9a8" opacity="0.32"/><circle cx="51" cy="403" r="2.0" fill="#f6d9a8" opacity="0.34"/><circle cx="1311" cy="420" r="0.8" fill="#f6d9a8" opacity="0.50"/><circle cx="1198" cy="599" r="2.1" fill="#f6d9a8" opacity="0.50"/><circle cx="661" cy="674" r="1.5" fill="#f6d9a8" opacity="0.26"/><circle cx="989" cy="534" r="2.8" fill="#f6d9a8" opacity="0.58"/><circle cx="439" cy="394" r="2.5" fill="#f6d9a8" opacity="0.59"/><circle cx="372" cy="397" r="2.1" fill="#f6d9a8" opacity="0.22"/><circle cx="1025" cy="100" r="2.8" fill="#f6d9a8" opacity="0.35"/><circle cx="1205" cy="1" r="2.7" fill="#f6d9a8" opacity="0.37"/><circle cx="1039" cy="578" r="1.9" fill="#f6d9a8" opacity="0.48"/><circle cx="234" cy="606" r="1.7" fill="#f6d9a8" opacity="0.53"/></g>
  <rect width="1408" height="768" fill="url(#vig)"/>
  <rect width="1408" height="768" filter="url(#grain)" opacity="0.6"/>
</svg>