<svg xmlns="http://www.w3.org/2000/svg" width="1408" height="768" viewBox="0 0 1408 768">
  <defs>
    <radialGradient id="key" cx="32%" cy="26%" r="95%">
      <stop offset="0%" stop-color="#5a4326"/>
      <stop offset="48%" stop-color="#241a10"/>
      <stop offset="100%" stop-color="#05040a"/>
    </radialGradient>
    <linearGradient id="beam" x1="0.05" y1="0" x2="0.75" y2="1">
      <stop offset="0%" stop-color="#ffe6bd" stop-opacity="0.138"/>
      <stop offset="55%" stop-color="#ffe6bd" stop-opacity="0"/>
    </linearGradient>
    <radialGradient id="orb" cx="50%" cy="50%" r="50%">
      <stop offset="0%"  stop-color="#e9b465" stop-opacity="0.193"/>
      <stop offset="45%" stop-color="#e9b465" stop-opacity="0.063"/>
      <stop offset="100%" stop-color="#e9b465" stop-opacity="0"/>
    </radialGradient>
    <radialGradient id="vig" cx="50%" cy="40%" r="72%">
      <stop offset="52%" stop-color="#000" stop-opacity="0"/>
      <stop offset="100%" stop-color="#000" stop-opacity="0.85"/>
    </radialGradient>
    <filter id="grain"><feTurbulence type="fractalNoise" baseFrequency="0.9" numOctaves="2" stitchTiles="stitch"/>
      <feColorMatrix type="saturate" values="0"/>
      <feComponentTransfer><feFuncA type="linear" slope="0.05"/></feComponentTransfer></filter>
  </defs>

  <rect width="1408" height="768" fill="url(#key)"/>
  <rect width="1408" height="768" fill="url(#beam)"/>
  <!-- rising glow: warm ember → violet across the sequence -->
  <ellipse cx="732.1600000000001" cy="476.16" rx="637" ry="490" fill="url(#orb)"/>
  <g opacity="0.7"><circle cx="338" cy="212" r="1.2" fill="#f6d9a8" opacity="0.18"/><circle cx="1007" cy="650" r="0.6" fill="#f6d9a8" opacity="0.40"/><circle cx="146" cy="164" r="2.3" fill="#f6d9a8" opacity="0.24"/><circle cx="506" cy="273" r="1.6" fill="#f6d9a8" opacity="0.37"/><circle cx="553" cy="368" r="2.0" fill="#f6d9a8" opacity="0.29"/><circle cx="179" cy="563" r="2.3" fill="#f6d9a8" opacity="0.16"/><circle cx="428" cy="96" r="1.8" fill="#f6d9a8" opacity="0.17"/><circle cx="509" cy="710" r="2.3" fill="#f6d9a8" opacity="0.40"/><circle cx="1362" cy="36" r="1.3" fill="#f6d9a8" opacity="0.42"/><circle cx="45" cy="165" r="2.5" fill="#f6d9a8" opacity="0.21"/><circle cx="398" cy="669" r="2.2" fill="#f6d9a8" opacity="0.48"/><circle cx="1021" cy="119" r="1.5" fill="#f6d9a8" opacity="0.36"/><circle cx="804" cy="317" r="1.0" fill="#f6d9a8" opacity="0.37"/><circle cx="641" cy="36" r="2.2" fill="#f6d9a8" opacity="0.20"/><circle cx="50" cy="532" r="1.4" fill="#f6d9a8" opacity="0.35"/><circle cx="394" cy="764" r="0.7" fill="#f6d9a8" opacity="0.21"/><circle cx="57" cy="396" r="1.1" fill="#f6d9a8" opacity="0.26"/><circle cx="1031" cy="393" r="0.9" fill="#f6d9a8" opacity="0.34"/><circle cx="275" cy="475" r="1.3" fill="#f6d9a8" opacity="0.20"/><circle cx="96" cy="536" r="2.8" fill="#f6d9a8" opacity="0.16"/><circle cx="362" cy="283" r="2.3" fill="#f6d9a8" opacity="0.27"/><circle cx="449" cy="749" r="1.7" fill="#f6d9a8" opacity="0.40"/><circle cx="1189" cy="26" r="2.0" fill="#f6d9a8" opacity="0.28"/><circle cx="230" cy="297" r="2.5" fill="#f6d9a8" opacity="0.32"/><circle cx="1350" cy="472" r="2.6" fill="#f6d9a8" opacity="0.23"/><circle cx="855" cy="349" r="0.7" fill="#f6d9a8" opacity="0.39"/><circle cx="462" cy="181" r="1.7" fill="#f6d9a8" opacity="0.38"/><circle cx="674" cy="470" r="2.6" fill="#f6d9a8" opacity="0.37"/><circle cx="778" cy="75" r="2.3" fill="#f6d9a8" opacity="0.40"/><circle cx="1035" cy="137" r="1.4" fill="#f6d9a8" opacity="0.28"/><circle cx="97" cy="1" r="0.5" fill="#f6d9a8" opacity="0.18"/><circle cx="817" cy="706" r="1.4" fill="#f6d9a8" opacity="0.28"/><circle cx="1304" cy="321" r="2.6" fill="#f6d9a8" opacity="0.42"/><circle cx="563" cy="115" r="2.0" fill="#f6d9a8" opacity="0.32"/><circle cx="527" cy="111" r="1.2" fill="#f6d9a8" opacity="0.33"/><circle cx="706" cy="316" r="1.9" fill="#f6d9a8" opacity="0.36"/><circle cx="369" cy="381" r="1.6" fill="#f6d9a8" opacity="0.37"/><circle cx="948" cy="545" r="2.2" fill="#f6d9a8" opacity="0.41"/><circle cx="356" cy="65" r="2.1" fill="#f6d9a8" opacity="0.37"/><circle cx="778" cy="236" r="2.1" fill="#f6d9a8" opacity="0.18"/><circle cx="1194" cy="107" r="2.1" fill="#f6d9a8" opacity="0.49"/><circle cx="1138" cy="73" r="2.8" fill="#f6d9a8" opacity="0.45"/><circle cx="318" cy="311" r="1.1" fill="#f6d9a8" opacity="0.50"/><circle cx="189" cy="389" r="0.8" fill="#f6d9a8" opacity="0.38"/><circle cx="1256" cy="459" r="0.6" fill="#f6d9a8" opacity="0.43"/><circle cx="81" cy="7" r="2.8" fill="#f6d9a8" opacity="0.34"/><circle cx="198" cy="320" r="0.4" fill="#f6d9a8" opacity="0.20"/><circle cx="779" cy="117" r="0.9" fill="#f6d9a8" opacity="0.25"/><circle cx="469" cy="102" r="2.0" fill="#f6d9a8" opacity="0.37"/><circle cx="678" cy="136" r="1.2" fill="#f6d9a8" opacity="0.39"/><circle cx="1382" cy="554" r="0.9" fill="#f6d9a8" opacity="0.38"/><circle cx="1166" cy="148" r="0.5" fill="#f6d9a8" opacity="0.16"/><circle cx="920" cy="442" r="1.6" fill="#f6d9a8" opacity="0.36"/><circle cx="1076" cy="700" r="1.9" fill="#f6d9a8" opacity="0.28"/><circle cx="961" cy="592" r="2.1" fill="#f6d9a8" opacity="0.19"/><circle cx="718" cy="727" r="0.6" fill="#f6d9a8" opacity="0.23"/><circle cx="976" cy="686" r="2.5" fill="#f6d9a8" opacity="0.28"/><circle cx="32" cy="519" r="2.8" fill="#f6d9a8" opacity="0.48"/><circle cx="1325" cy="334" r="1.0" fill="#f6d9a8" opacity="0.26"/><circle cx="686" cy="507" r="1.3" fill="#f6d9a8" opacity="0.31"/><circle cx="648" cy="574" r="1.8" fill="#f6d9a8" opacity="0.25"/><circle cx="877" cy="492" r="1.1" fill="#f6d9a8" opacity="0.50"/><circle cx="41" cy="430" r="2.4" fill="#f6d9a8" opacity="0.23"/><circle cx="1131" cy="58" r="2.7" fill="#f6d9a8" opacity="0.39"/><circle cx="1330" cy="45" r="1.1" fill="#f6d9a8" opacity="0.31"/><circle cx="1392" cy="198" r="1.3" fill="#f6d9a8" opacity="0.34"/><circle cx="856" cy="408" r="2.5" fill="#f6d9a8" opacity="0.18"/><circle cx="659" cy="759" r="2.7" fill="#f6d9a8" opacity="0.23"/><circle cx="1308" cy="437" r="2.5" fill="#f6d9a8" opacity="0.43"/><circle cx="587" cy="623" r="1.8" fill="#f6d9a8" opacity="0.17"/><circle cx="756" cy="643" r="2.2" fill="#f6d9a8" opacity="0.31"/><circle cx="377" cy="624" r="0.7" fill="#f6d9a8" opacity="0.48"/><circle cx="1133" cy="310" r="2.0" fill="#f6d9a8" opacity="0.16"/><circle cx="1251" cy="756" r="2.6" fill="#f6d9a8" opacity="0.32"/><circle cx="970" cy="485" r="2.6" fill="#f6d9a8" opacity="0.26"/><circle cx="818" cy="111" r="0.5" fill="#f6d9a8" opacity="0.19"/><circle cx="535" cy="488" r="2.4" fill="#f6d9a8" opacity="0.46"/><circle cx="1242" cy="327" r="1.3" fill="#f6d9a8" opacity="0.26"/><circle cx="1075" cy="228" r="1.0" fill="#f6d9a8" opacity="0.17"/><circle cx="266" cy="249" r="1.4" fill="#f6d9a8" opacity="0.41"/><circle cx="980" cy="649" r="2.0" fill="#f6d9a8" opacity="0.49"/><circle cx="260" cy="235" r="0.9" fill="#f6d9a8" opacity="0.39"/><circle cx="133" cy="2" r="1.5" fill="#f6d9a8" opacity="0.37"/><circle cx="125" cy="762" r="1.5" fill="#f6d9a8" opacity="0.29"/><circle cx="1177" cy="527" r="2.3" fill="#f6d9a8" opacity="0.16"/><circle cx="996" cy="678" r="1.3" fill="#f6d9a8" opacity="0.32"/><circle cx="661" cy="211" r="1.1" fill="#f6d9a8" opacity="0.33"/><circle cx="432" cy="510" r="0.9" fill="#f6d9a8" opacity="0.30"/><circle cx="1045" cy="340" r="2.0" fill="#f6d9a8" opacity="0.46"/><circle cx="413" cy="49" r="2.3" fill="#f6d9a8" opacity="0.23"/></g>
  <g opacity="0.9"><circle cx="342" cy="700" r="0.7" fill="#f6d9a8" opacity="0.32"/><circle cx="536" cy="62" r="0.6" fill="#f6d9a8" opacity="0.23"/><circle cx="936" cy="473" r="2.7" fill="#f6d9a8" opacity="0.21"/><circle cx="278" cy="14" r="0.7" fill="#f6d9a8" opacity="0.56"/><circle cx="654" cy="449" r="2.2" fill="#f6d9a8" opacity="0.43"/><circle cx="1358" cy="517" r="1.5" fill="#f6d9a8" opacity="0.41"/><circle cx="177" cy="167" r="2.3" fill="#f6d9a8" opacity="0.36"/><circle cx="43" cy="188" r="2.6" fill="#f6d9a8" opacity="0.52"/><circle cx="1000" cy="224" r="0.7" fill="#f6d9a8" opacity="0.28"/><circle cx="39" cy="744" r="0.8" fill="#f6d9a8" opacity="0.26"/><circle cx="578" cy="76" r="2.0" fill="#f6d9a8" opacity="0.53"/><circle cx="1342" cy="114" r="1.0" fill="#f6d9a8" opacity="0.51"/><circle cx="923" cy="685" r="1.8" fill="#f6d9a8" opacity="0.45"/><circle cx="1138" cy="398" r="1.1" fill="#f6d9a8" opacity="0.19"/><circle cx="1115" cy="494" r="1.7" fill="#f6d9a8" opacity="0.22"/><circle cx="1139" cy="696" r="0.7" fill="#f6d9a8" opacity="0.29"/><circle cx="440" cy="95" r="1.3" fill="#f6d9a8" opacity="0.57"/><circle cx="206" cy="159" r="2.6" fill="#f6d9a8" opacity="0.24"/><circle cx="931" cy="212" r="1.0" fill="#f6d9a8" opacity="0.23"/><circle cx="457" cy="526" r="0.5" fill="#f6d9a8" opacity="0.53"/><circle cx="833" cy="707" r="2.0" fill="#f6d9a8" opacity="0.49"/><circle cx="67" cy="433" r="2.5" fill="#f6d9a8" opacity="0.54"/><circle cx="128" cy="588" r="2.0" fill="#f6d9a8" opacity="0.47"/><circle cx="951" cy="733" r="2.3" fill="#f6d9a8" opacity="0.23"/><circle cx="1220" cy="554" r="2.4" fill="#f6d9a8" opacity="0.20"/><circle cx="343" cy="58" r="2.8" fill="#f6d9a8" opacity="0.31"/><circle cx="557" cy="418" r="2.3" fill="#f6d9a8" opacity="0.34"/><circle cx="60" cy="614" r="2.0" fill="#f6d9a8" opacity="0.41"/><circle cx="753" cy="598" r="1.1" fill="#f6d9a8" opacity="0.56"/><circle cx="1068" cy="384" r="0.6" fill="#f6d9a8" opacity="0.35"/><circle cx="980" cy="14" r="2.2" fill="#f6d9a8" opacity="0.30"/><circle cx="254" cy="175" r="1.9" fill="#f6d9a8" opacity="0.24"/><circle cx="818" cy="367" r="1.9" fill="#f6d9a8" opacity="0.34"/><circle cx="657" cy="138" r="0.7" fill="#f6d9a8" opacity="0.39"/><circle cx="678" cy="675" r="2.6" fill="#f6d9a8" opacity="0.53"/><circle cx="1374" cy="378" r="0.7" fill="#f6d9a8" opacity="0.35"/></g>
  <rect width="1408" height="768" fill="url(#vig)"/>
  <rect width="1408" height="768" filter="url(#grain)" opacity="0.6"/>
</svg>