<svg xmlns="http://www.w3.org/2000/svg" width="1408" height="768" viewBox="0 0 1408 768">
  <defs>
    <radialGradient id="key" cx="32%" cy="26%" r="95%">
      <stop offset="0%" stop-color="#6a4c28"/>
      <stop offset="48%" stop-color="#241609"/>
      <stop offset="100%" stop-color="#05040a"/>
    </radialGradient>
    <linearGradient id="beam" x1="0.05" y1="0" x2="0.75" y2="1">
      <stop offset="0%" stop-color="#ffe6bd" stop-opacity="0.120"/>
      <stop offset="55%" stop-color="#ffe6bd" stop-opacity="0"/>
    </linearGradient>
    <radialGradient id="orb" cx="50%" cy="50%" r="50%">
      <stop offset="0%"  stop-color="#f0b45e" stop-opacity="0.275"/>
      <stop offset="45%" stop-color="#f0b45e" stop-opacity="0.090"/>
      <stop offset="100%" stop-color="#f0b45e" stop-opacity="0"/>
    </radialGradient>
    <radialGradient id="vig" cx="50%" cy="40%" r="72%">
      <stop offset="52%" stop-color="#000" stop-opacity="0"/>
      <stop offset="100%" stop-color="#000" stop-opacity="0.85"/>
    </radialGradient>
    <filter id="grain"><feTurbulence type="fractalNoise" baseFrequency="0.9" numOctaves="2" stitchTiles="stitch"/>
      <feColorMatrix type="saturate" values="0"/>
      <feComponentTransfer><feFuncA type="linear" slope="0.05"/></feComponentTransfer></filter>
  </defs>

  <rect width="1408" height="768" fill="url(#key)"/>
  <rect width="1408" height="768" fill="url(#beam)"/>
  <!-- rising glow: warm ember → violet across the sequence -->
  <ellipse cx="732.1600000000001" cy="445.44" rx="670" ry="520" fill="url(#orb)"/>
  <g opacity="0.7"><circle cx="345" cy="280" r="1.8" fill="#f6d9a8" opacity="0.33"/><circle cx="1004" cy="629" r="1.0" fill="#f6d9a8" opacity="0.40"/><circle cx="293" cy="694" r="1.0" fill="#f6d9a8" opacity="0.32"/><circle cx="115" cy="597" r="1.0" fill="#f6d9a8" opacity="0.23"/><circle cx="324" cy="508" r="1.0" fill="#f6d9a8" opacity="0.16"/><circle cx="591" cy="374" r="2.4" fill="#f6d9a8" opacity="0.46"/><circle cx="1003" cy="328" r="2.2" fill="#f6d9a8" opacity="0.24"/><circle cx="112" cy="255" r="2.5" fill="#f6d9a8" opacity="0.36"/><circle cx="742" cy="249" r="0.7" fill="#f6d9a8" opacity="0.45"/><circle cx="438" cy="60" r="1.9" fill="#f6d9a8" opacity="0.48"/><circle cx="102" cy="420" r="1.5" fill="#f6d9a8" opacity="0.37"/><circle cx="1370" cy="111" r="0.9" fill="#f6d9a8" opacity="0.32"/><circle cx="204" cy="508" r="1.7" fill="#f6d9a8" opacity="0.48"/><circle cx="86" cy="328" r="1.1" fill="#f6d9a8" opacity="0.17"/><circle cx="870" cy="358" r="0.6" fill="#f6d9a8" opacity="0.26"/><circle cx="61" cy="537" r="0.7" fill="#f6d9a8" opacity="0.16"/><circle cx="1317" cy="319" r="2.8" fill="#f6d9a8" opacity="0.18"/><circle cx="20" cy="431" r="1.1" fill="#f6d9a8" opacity="0.40"/><circle cx="596" cy="463" r="1.8" fill="#f6d9a8" opacity="0.48"/><circle cx="917" cy="738" r="0.6" fill="#f6d9a8" opacity="0.49"/><circle cx="566" cy="243" r="1.1" fill="#f6d9a8" opacity="0.46"/><circle cx="1403" cy="207" r="2.0" fill="#f6d9a8" opacity="0.34"/><circle cx="175" cy="111" r="1.7" fill="#f6d9a8" opacity="0.47"/><circle cx="58" cy="716" r="1.7" fill="#f6d9a8" opacity="0.45"/><circle cx="725" cy="502" r="0.6" fill="#f6d9a8" opacity="0.47"/><circle cx="179" cy="508" r="0.5" fill="#f6d9a8" opacity="0.32"/><circle cx="1027" cy="477" r="1.4" fill="#f6d9a8" opacity="0.36"/><circle cx="224" cy="168" r="1.3" fill="#f6d9a8" opacity="0.16"/><circle cx="736" cy="642" r="2.6" fill="#f6d9a8" opacity="0.36"/><circle cx="890" cy="561" r="0.4" fill="#f6d9a8" opacity="0.45"/><circle cx="605" cy="353" r="2.3" fill="#f6d9a8" opacity="0.29"/><circle cx="655" cy="454" r="0.6" fill="#f6d9a8" opacity="0.44"/><circle cx="1075" cy="729" r="2.4" fill="#f6d9a8" opacity="0.34"/><circle cx="925" cy="702" r="1.6" fill="#f6d9a8" opacity="0.28"/><circle cx="585" cy="420" r="2.6" fill="#f6d9a8" opacity="0.42"/><circle cx="1047" cy="422" r="0.5" fill="#f6d9a8" opacity="0.29"/><circle cx="676" cy="250" r="1.5" fill="#f6d9a8" opacity="0.26"/><circle cx="109" cy="509" r="0.5" fill="#f6d9a8" opacity="0.26"/><circle cx="963" cy="613" r="1.9" fill="#f6d9a8" opacity="0.24"/><circle cx="1288" cy="676" r="0.5" fill="#f6d9a8" opacity="0.16"/><circle cx="888" cy="76" r="1.3" fill="#f6d9a8" opacity="0.41"/><circle cx="443" cy="763" r="0.7" fill="#f6d9a8" opacity="0.28"/><circle cx="1207" cy="547" r="0.6" fill="#f6d9a8" opacity="0.36"/><circle cx="1199" cy="173" r="1.2" fill="#f6d9a8" opacity="0.16"/><circle cx="989" cy="596" r="1.6" fill="#f6d9a8" opacity="0.42"/><circle cx="203" cy="47" r="1.4" fill="#f6d9a8" opacity="0.49"/><circle cx="1394" cy="721" r="2.3" fill="#f6d9a8" opacity="0.45"/><circle cx="266" cy="492" r="0.6" fill="#f6d9a8" opacity="0.43"/><circle cx="735" cy="607" r="1.1" fill="#f6d9a8" opacity="0.40"/><circle cx="723" cy="549" r="0.9" fill="#f6d9a8" opacity="0.20"/><circle cx="542" cy="645" r="0.5" fill="#f6d9a8" opacity="0.26"/><circle cx="193" cy="123" r="2.1" fill="#f6d9a8" opacity="0.17"/><circle cx="99" cy="55" r="0.8" fill="#f6d9a8" opacity="0.22"/><circle cx="490" cy="49" r="1.8" fill="#f6d9a8" opacity="0.39"/><circle cx="569" cy="40" r="0.9" fill="#f6d9a8" opacity="0.38"/><circle cx="411" cy="275" r="0.8" fill="#f6d9a8" opacity="0.40"/><circle cx="414" cy="464" r="2.4" fill="#f6d9a8" opacity="0.25"/><circle cx="521" cy="27" r="2.5" fill="#f6d9a8" opacity="0.20"/><circle cx="397" cy="35" r="2.8" fill="#f6d9a8" opacity="0.17"/><circle cx="638" cy="698" r="0.8" fill="#f6d9a8" opacity="0.15"/><circle cx="1291" cy="759" r="1.2" fill="#f6d9a8" opacity="0.29"/><circle cx="1277" cy="725" r="2.4" fill="#f6d9a8" opacity="0.16"/><circle cx="1318" cy="534" r="2.3" fill="#f6d9a8" opacity="0.20"/><circle cx="606" cy="118" r="1.9" fill="#f6d9a8" opacity="0.36"/><circle cx="361" cy="6" r="2.2" fill="#f6d9a8" opacity="0.38"/><circle cx="993" cy="39" r="0.6" fill="#f6d9a8" opacity="0.38"/><circle cx="1102" cy="640" r="0.7" fill="#f6d9a8" opacity="0.19"/><circle cx="1211" cy="510" r="2.5" fill="#f6d9a8" opacity="0.36"/><circle cx="42" cy="146" r="1.0" fill="#f6d9a8" opacity="0.38"/><circle cx="1046" cy="94" r="1.1" fill="#f6d9a8" opacity="0.29"/><circle cx="771" cy="630" r="2.0" fill="#f6d9a8" opacity="0.43"/><circle cx="20" cy="611" r="0.6" fill="#f6d9a8" opacity="0.37"/><circle cx="243" cy="280" r="1.5" fill="#f6d9a8" opacity="0.39"/><circle cx="59" cy="767" r="1.8" fill="#f6d9a8" opacity="0.38"/><circle cx="110" cy="77" r="2.3" fill="#f6d9a8" opacity="0.39"/><circle cx="869" cy="200" r="1.3" fill="#f6d9a8" opacity="0.45"/><circle cx="912" cy="179" r="2.4" fill="#f6d9a8" opacity="0.42"/><circle cx="676" cy="118" r="2.5" fill="#f6d9a8" opacity="0.48"/><circle cx="219" cy="590" r="2.5" fill="#f6d9a8" opacity="0.18"/><circle cx="923" cy="527" r="1.5" fill="#f6d9a8" opacity="0.21"/><circle cx="365" cy="710" r="2.6" fill="#f6d9a8" opacity="0.38"/><circle cx="853" cy="198" r="0.4" fill="#f6d9a8" opacity="0.47"/><circle cx="435" cy="100" r="1.4" fill="#f6d9a8" opacity="0.16"/><circle cx="268" cy="135" r="1.7" fill="#f6d9a8" opacity="0.17"/><circle cx="654" cy="433" r="1.9" fill="#f6d9a8" opacity="0.16"/><circle cx="629" cy="567" r="1.1" fill="#f6d9a8" opacity="0.33"/><circle cx="883" cy="207" r="1.9" fill="#f6d9a8" opacity="0.33"/><circle cx="241" cy="670" r="0.5" fill="#f6d9a8" opacity="0.45"/><circle cx="262" cy="637" r="1.9" fill="#f6d9a8" opacity="0.29"/><circle cx="459" cy="265" r="2.2" fill="#f6d9a8" opacity="0.48"/></g>
  <g opacity="0.9"><circle cx="349" cy="768" r="1.3" fill="#f6d9a8" opacity="0.51"/><circle cx="532" cy="41" r="1.1" fill="#f6d9a8" opacity="0.23"/><circle cx="1083" cy="234" r="1.4" fill="#f6d9a8" opacity="0.30"/><circle cx="1295" cy="338" r="2.5" fill="#f6d9a8" opacity="0.39"/><circle cx="426" cy="590" r="1.2" fill="#f6d9a8" opacity="0.28"/><circle cx="363" cy="328" r="1.6" fill="#f6d9a8" opacity="0.35"/><circle cx="752" cy="399" r="2.7" fill="#f6d9a8" opacity="0.44"/><circle cx="1054" cy="501" r="2.7" fill="#f6d9a8" opacity="0.46"/><circle cx="380" cy="437" r="2.6" fill="#f6d9a8" opacity="0.31"/><circle cx="432" cy="639" r="2.6" fill="#f6d9a8" opacity="0.58"/><circle cx="282" cy="595" r="1.3" fill="#f6d9a8" opacity="0.40"/><circle cx="282" cy="106" r="0.4" fill="#f6d9a8" opacity="0.47"/><circle cx="324" cy="108" r="2.6" fill="#f6d9a8" opacity="0.58"/><circle cx="583" cy="690" r="2.4" fill="#f6d9a8" opacity="0.58"/><circle cx="526" cy="321" r="0.9" fill="#f6d9a8" opacity="0.53"/><circle cx="806" cy="468" r="0.7" fill="#f6d9a8" opacity="0.23"/><circle cx="293" cy="17" r="0.6" fill="#f6d9a8" opacity="0.47"/><circle cx="603" cy="197" r="0.5" fill="#f6d9a8" opacity="0.32"/><circle cx="1252" cy="199" r="1.4" fill="#f6d9a8" opacity="0.56"/><circle cx="1278" cy="727" r="0.7" fill="#f6d9a8" opacity="0.50"/><circle cx="1037" cy="667" r="0.8" fill="#f6d9a8" opacity="0.30"/><circle cx="1020" cy="659" r="0.4" fill="#f6d9a8" opacity="0.47"/><circle cx="523" cy="673" r="1.7" fill="#f6d9a8" opacity="0.27"/><circle cx="778" cy="384" r="1.4" fill="#f6d9a8" opacity="0.38"/><circle cx="595" cy="584" r="0.4" fill="#f6d9a8" opacity="0.48"/><circle cx="1075" cy="217" r="2.6" fill="#f6d9a8" opacity="0.23"/><circle cx="1122" cy="714" r="2.0" fill="#f6d9a8" opacity="0.32"/><circle cx="1018" cy="312" r="0.8" fill="#f6d9a8" opacity="0.58"/><circle cx="711" cy="397" r="1.5" fill="#f6d9a8" opacity="0.52"/><circle cx="923" cy="40" r="2.0" fill="#f6d9a8" opacity="0.55"/><circle cx="81" cy="366" r="1.6" fill="#f6d9a8" opacity="0.43"/><circle cx="92" cy="691" r="1.1" fill="#f6d9a8" opacity="0.43"/><circle cx="589" cy="7" r="1.7" fill="#f6d9a8" opacity="0.25"/><circle cx="1018" cy="725" r="2.7" fill="#f6d9a8" opacity="0.35"/><circle cx="736" cy="217" r="1.5" fill="#f6d9a8" opacity="0.22"/><circle cx="307" cy="483" r="1.7" fill="#f6d9a8" opacity="0.27"/></g>
  <rect width="1408" height="768" fill="url(#vig)"/>
  <rect width="1408" height="768" filter="url(#grain)" opacity="0.6"/>
</svg>