<svg xmlns="http://www.w3.org/2000/svg" width="1408" height="768" viewBox="0 0 1408 768">
  <defs>
    <radialGradient id="key" cx="32%" cy="26%" r="95%">
      <stop offset="0%" stop-color="#3a2c50"/>
      <stop offset="48%" stop-color="#160f26"/>
      <stop offset="100%" stop-color="#05040a"/>
    </radialGradient>
    <linearGradient id="beam" x1="0.05" y1="0" x2="0.75" y2="1">
      <stop offset="0%" stop-color="#ffe6bd" stop-opacity="0.060"/>
      <stop offset="55%" stop-color="#ffe6bd" stop-opacity="0"/>
    </linearGradient>
    <radialGradient id="orb" cx="50%" cy="50%" r="50%">
      <stop offset="0%"  stop-color="#b06bff" stop-opacity="0.550"/>
      <stop offset="45%" stop-color="#b06bff" stop-opacity="0.180"/>
      <stop offset="100%" stop-color="#b06bff" stop-opacity="0"/>
    </radialGradient>
    <radialGradient id="vig" cx="50%" cy="40%" r="72%">
      <stop offset="52%" stop-color="#000" stop-opacity="0"/>
      <stop offset="100%" stop-color="#000" stop-opacity="0.85"/>
    </radialGradient>
    <filter id="grain"><feTurbulence type="fractalNoise" baseFrequency="0.9" numOctaves="2" stitchTiles="stitch"/>
      <feColorMatrix type="saturate" values="0"/>
      <feComponentTransfer><feFuncA type="linear" slope="0.05"/></feComponentTransfer></filter>
  </defs>

  <rect width="1408" height="768" fill="url(#key)"/>
  <rect width="1408" height="768" fill="url(#beam)"/>
  <!-- rising glow: warm ember → violet across the sequence -->
  <ellipse cx="732.1600000000001" cy="399.36" rx="780" ry="620" fill="url(#orb)"/>
  <g opacity="0.7"><circle cx="361" cy="66" r="0.7" fill="#d9c2ff" opacity="0.37"/><circle cx="995" cy="192" r="0.9" fill="#d9c2ff" opacity="0.22"/><circle cx="661" cy="481" r="2.4" fill="#d9c2ff" opacity="0.16"/><circle cx="546" cy="255" r="0.7" fill="#d9c2ff" opacity="0.23"/><circle cx="1161" cy="90" r="0.9" fill="#d9c2ff" opacity="0.38"/><circle cx="215" cy="285" r="2.6" fill="#d9c2ff" opacity="0.17"/><circle cx="330" cy="523" r="2.2" fill="#d9c2ff" opacity="0.24"/><circle cx="528" cy="654" r="1.6" fill="#d9c2ff" opacity="0.24"/><circle cx="600" cy="396" r="0.5" fill="#d9c2ff" opacity="0.34"/><circle cx="11" cy="567" r="1.8" fill="#d9c2ff" opacity="0.27"/><circle cx="67" cy="181" r="1.0" fill="#d9c2ff" opacity="0.26"/><circle cx="128" cy="90" r="0.7" fill="#d9c2ff" opacity="0.41"/><circle cx="114" cy="218" r="1.2" fill="#d9c2ff" opacity="0.41"/><circle cx="808" cy="673" r="0.5" fill="#d9c2ff" opacity="0.29"/><circle cx="806" cy="309" r="1.0" fill="#d9c2ff" opacity="0.39"/><circle cx="639" cy="353" r="0.7" fill="#d9c2ff" opacity="0.39"/><circle cx="948" cy="125" r="2.3" fill="#d9c2ff" opacity="0.48"/><circle cx="307" cy="526" r="1.7" fill="#d9c2ff" opacity="0.21"/><circle cx="1398" cy="432" r="1.6" fill="#d9c2ff" opacity="0.47"/><circle cx="857" cy="474" r="1.2" fill="#d9c2ff" opacity="0.43"/><circle cx="373" cy="527" r="0.6" fill="#d9c2ff" opacity="0.42"/><circle cx="970" cy="389" r="1.6" fill="#d9c2ff" opacity="0.38"/><circle cx="458" cy="325" r="2.2" fill="#d9c2ff" opacity="0.23"/><circle cx="330" cy="611" r="0.8" fill="#d9c2ff" opacity="0.23"/><circle cx="570" cy="194" r="1.6" fill="#d9c2ff" opacity="0.18"/><circle cx="600" cy="138" r="1.3" fill="#d9c2ff" opacity="0.32"/><circle cx="1030" cy="66" r="0.6" fill="#d9c2ff" opacity="0.49"/><circle cx="1213" cy="565" r="1.8" fill="#d9c2ff" opacity="0.18"/><circle cx="629" cy="139" r="2.4" fill="#d9c2ff" opacity="0.45"/><circle cx="1232" cy="84" r="1.4" fill="#d9c2ff" opacity="0.35"/><circle cx="1172" cy="82" r="0.8" fill="#d9c2ff" opacity="0.23"/><circle cx="250" cy="592" r="2.0" fill="#d9c2ff" opacity="0.48"/><circle cx="1205" cy="598" r="0.9" fill="#d9c2ff" opacity="0.33"/><circle cx="1124" cy="249" r="1.8" fill="#d9c2ff" opacity="0.37"/><circle cx="26" cy="426" r="2.4" fill="#d9c2ff" opacity="0.29"/><circle cx="490" cy="685" r="1.9" fill="#d9c2ff" opacity="0.31"/><circle cx="740" cy="304" r="2.5" fill="#d9c2ff" opacity="0.34"/><circle cx="829" cy="419" r="0.9" fill="#d9c2ff" opacity="0.39"/><circle cx="1075" cy="63" r="2.6" fill="#d9c2ff" opacity="0.43"/><circle cx="452" cy="623" r="1.3" fill="#d9c2ff" opacity="0.48"/><circle cx="125" cy="382" r="2.7" fill="#d9c2ff" opacity="0.21"/><circle cx="816" cy="184" r="2.7" fill="#d9c2ff" opacity="0.38"/><circle cx="1318" cy="752" r="0.6" fill="#d9c2ff" opacity="0.20"/><circle cx="204" cy="18" r="2.1" fill="#d9c2ff" opacity="0.47"/><circle cx="323" cy="553" r="1.5" fill="#d9c2ff" opacity="0.41"/><circle cx="510" cy="531" r="1.6" fill="#d9c2ff" opacity="0.16"/><circle cx="160" cy="187" r="2.2" fill="#d9c2ff" opacity="0.18"/><circle cx="394" cy="663" r="2.2" fill="#d9c2ff" opacity="0.37"/><circle cx="1402" cy="718" r="2.4" fill="#d9c2ff" opacity="0.30"/><circle cx="131" cy="46" r="1.4" fill="#d9c2ff" opacity="0.24"/><circle cx="1260" cy="489" r="2.0" fill="#d9c2ff" opacity="0.47"/><circle cx="1278" cy="445" r="2.8" fill="#d9c2ff" opacity="0.37"/><circle cx="159" cy="239" r="2.5" fill="#d9c2ff" opacity="0.41"/><circle cx="1139" cy="339" r="0.4" fill="#d9c2ff" opacity="0.29"/><circle cx="295" cy="578" r="2.7" fill="#d9c2ff" opacity="0.15"/><circle cx="349" cy="296" r="2.7" fill="#d9c2ff" opacity="0.29"/><circle cx="416" cy="290" r="2.0" fill="#d9c2ff" opacity="0.17"/><circle cx="1041" cy="718" r="0.6" fill="#d9c2ff" opacity="0.39"/><circle cx="893" cy="55" r="2.4" fill="#d9c2ff" opacity="0.30"/><circle cx="1223" cy="406" r="0.8" fill="#d9c2ff" opacity="0.45"/><circle cx="788" cy="69" r="1.0" fill="#d9c2ff" opacity="0.24"/><circle cx="870" cy="540" r="2.3" fill="#d9c2ff" opacity="0.20"/><circle cx="990" cy="26" r="1.1" fill="#d9c2ff" opacity="0.30"/><circle cx="1406" cy="269" r="2.4" fill="#d9c2ff" opacity="0.47"/><circle cx="754" cy="678" r="1.4" fill="#d9c2ff" opacity="0.21"/><circle cx="1404" cy="25" r="1.3" fill="#d9c2ff" opacity="0.49"/><circle cx="311" cy="70" r="1.0" fill="#d9c2ff" opacity="0.21"/><circle cx="1182" cy="270" r="2.1" fill="#d9c2ff" opacity="0.17"/><circle cx="1099" cy="572" r="2.1" fill="#d9c2ff" opacity="0.26"/><circle cx="786" cy="307" r="0.5" fill="#d9c2ff" opacity="0.25"/><circle cx="810" cy="598" r="2.6" fill="#d9c2ff" opacity="0.18"/><circle cx="1240" cy="193" r="2.6" fill="#d9c2ff" opacity="0.46"/><circle cx="129" cy="207" r="2.7" fill="#d9c2ff" opacity="0.26"/><circle cx="598" cy="409" r="2.2" fill="#d9c2ff" opacity="0.37"/><circle cx="70" cy="592" r="0.6" fill="#d9c2ff" opacity="0.37"/><circle cx="295" cy="38" r="2.3" fill="#d9c2ff" opacity="0.41"/><circle cx="1149" cy="559" r="1.2" fill="#d9c2ff" opacity="0.31"/><circle cx="670" cy="362" r="0.7" fill="#d9c2ff" opacity="0.33"/><circle cx="191" cy="726" r="1.5" fill="#d9c2ff" opacity="0.37"/><circle cx="1159" cy="71" r="1.7" fill="#d9c2ff" opacity="0.22"/><circle cx="236" cy="95" r="0.5" fill="#d9c2ff" opacity="0.28"/><circle cx="925" cy="487" r="0.5" fill="#d9c2ff" opacity="0.48"/><circle cx="1189" cy="345" r="2.6" fill="#d9c2ff" opacity="0.18"/><circle cx="1331" cy="102" r="1.0" fill="#d9c2ff" opacity="0.39"/><circle cx="752" cy="199" r="0.7" fill="#d9c2ff" opacity="0.33"/><circle cx="415" cy="671" r="2.0" fill="#d9c2ff" opacity="0.18"/><circle cx="30" cy="581" r="0.4" fill="#d9c2ff" opacity="0.35"/><circle cx="469" cy="303" r="1.8" fill="#d9c2ff" opacity="0.47"/><circle cx="1120" cy="612" r="1.4" fill="#d9c2ff" opacity="0.40"/><circle cx="573" cy="421" r="0.7" fill="#d9c2ff" opacity="0.42"/></g>
  <g opacity="0.9"><circle cx="365" cy="554" r="2.6" fill="#d9c2ff" opacity="0.55"/><circle cx="524" cy="372" r="0.9" fill="#d9c2ff" opacity="0.44"/><circle cx="43" cy="22" r="0.4" fill="#d9c2ff" opacity="0.53"/><circle cx="318" cy="764" r="2.1" fill="#d9c2ff" opacity="0.38"/><circle cx="1263" cy="172" r="1.1" fill="#d9c2ff" opacity="0.54"/><circle cx="1394" cy="239" r="1.9" fill="#d9c2ff" opacity="0.41"/><circle cx="79" cy="595" r="2.7" fill="#d9c2ff" opacity="0.45"/><circle cx="62" cy="132" r="1.8" fill="#d9c2ff" opacity="0.32"/><circle cx="239" cy="584" r="2.4" fill="#d9c2ff" opacity="0.60"/><circle cx="6" cy="378" r="2.5" fill="#d9c2ff" opacity="0.33"/><circle cx="247" cy="356" r="0.8" fill="#d9c2ff" opacity="0.27"/><circle cx="448" cy="85" r="2.6" fill="#d9c2ff" opacity="0.58"/><circle cx="234" cy="586" r="2.0" fill="#d9c2ff" opacity="0.49"/><circle cx="1305" cy="267" r="1.8" fill="#d9c2ff" opacity="0.30"/><circle cx="463" cy="272" r="1.3" fill="#d9c2ff" opacity="0.26"/><circle cx="1384" cy="285" r="0.7" fill="#d9c2ff" opacity="0.51"/><circle cx="1332" cy="591" r="2.5" fill="#d9c2ff" opacity="0.42"/><circle cx="891" cy="293" r="1.0" fill="#d9c2ff" opacity="0.51"/><circle cx="647" cy="168" r="1.3" fill="#d9c2ff" opacity="0.55"/><circle cx="1218" cy="463" r="1.3" fill="#d9c2ff" opacity="0.43"/><circle cx="844" cy="183" r="2.7" fill="#d9c2ff" opacity="0.25"/><circle cx="588" cy="73" r="2.4" fill="#d9c2ff" opacity="0.52"/><circle cx="806" cy="119" r="2.2" fill="#d9c2ff" opacity="0.41"/><circle cx="1051" cy="279" r="0.5" fill="#d9c2ff" opacity="0.54"/><circle cx="440" cy="275" r="1.4" fill="#d9c2ff" opacity="0.56"/><circle cx="88" cy="615" r="1.0" fill="#d9c2ff" opacity="0.23"/><circle cx="1125" cy="303" r="1.2" fill="#d9c2ff" opacity="0.46"/><circle cx="598" cy="708" r="1.3" fill="#d9c2ff" opacity="0.60"/><circle cx="604" cy="662" r="1.2" fill="#d9c2ff" opacity="0.20"/><circle cx="1265" cy="331" r="0.6" fill="#d9c2ff" opacity="0.44"/><circle cx="648" cy="95" r="2.4" fill="#d9c2ff" opacity="0.35"/><circle cx="1095" cy="60" r="2.5" fill="#d9c2ff" opacity="0.47"/><circle cx="719" cy="644" r="2.6" fill="#d9c2ff" opacity="0.23"/><circle cx="1218" cy="272" r="0.6" fill="#d9c2ff" opacity="0.46"/><circle cx="177" cy="223" r="1.4" fill="#d9c2ff" opacity="0.48"/><circle cx="1158" cy="747" r="0.7" fill="#d9c2ff" opacity="0.29"/></g>
  <rect width="1408" height="768" fill="url(#vig)"/>
  <rect width="1408" height="768" filter="url(#grain)" opacity="0.6"/>
</svg>